<?xml version="1.0" encoding="utf-8"?>
<!-- Generator: Adobe Illustrator 16.0.0, SVG Export Plug-In . SVG Version: 6.00 Build 0)  -->
<!DOCTYPE svg PUBLIC "-//W3C//DTD SVG 1.1//EN" "http://www.w3.org/Graphics/SVG/1.1/DTD/svg11.dtd">
<svg version="1.1" id="图层_1" xmlns="http://www.w3.org/2000/svg" xmlns:xlink="http://www.w3.org/1999/xlink" x="0px" y="0px"
	 width="600px" height="600px" viewBox="0 0 600 600" enable-background="new 0 0 600 600" xml:space="preserve">
<circle fill="#E83828" cx="309.5" cy="303" r="234.5"/>
<path fill-rule="evenodd" clip-rule="evenodd" fill="#FFFFFF" d="M404.32,355.807c-8.773,2.607-17.837,8.488-24.154,15.163
	c-12.469,13.167-19.628,38.858-39.74,43.198c-16.484,3.591-34.486-12.308-40.914-25.328c25.837-27.934,48.791-65.215,65.577-98.464
	c9.657-19.173,19.864-41.305,21.948-63.506c2.179-23.071-3.919-40.964-19.534-51.492c-13.284-8.94-30.747-14.788-43.934-19.378
	c-16.181,25.498-31.906,51.323-47.189,77.557c6.331,2.583,12.027,4.962,17.905,7.355c8.179,3.32,16.634,5.722,17.905,16.034
	c1.131,9.52-3.215,20.5-7.339,30.098c-7.421,17.236-17.173,32.897-30.914,46.11c-6.827,6.561-16.138,14.335-25.229,14.709
	c-14.388,0.612-25.34-6.618-34.996-12.035c-15.782,25.611-32.044,51.845-47.205,76.878c15.547,4.85,26.9,13.541,43.949,17.371
	c6.566,1.496,17.739,2.278,26.029,0.681c17.547-3.377,33.19-13.938,45.935-25.09c19.836,26.992,60.57,40.933,88.903,15.967
	c17.243-15.23,25.243-48.365,48.225-48.002c15.808,0.238,26.347,14.765,30.802,24.147c7.119-1.846,16.319-4.521,23.299-6.481
	C466.104,367.456,431.522,347.728,404.32,355.807L404.32,355.807z"/>
</svg>
