<?xml version="1.0" encoding="utf-8"?>
<!-- Generator: Adobe Illustrator 16.0.0, SVG Export Plug-In . SVG Version: 6.00 Build 0)  -->
<!DOCTYPE svg PUBLIC "-//W3C//DTD SVG 1.1//EN" "http://www.w3.org/Graphics/SVG/1.1/DTD/svg11.dtd">
<svg version="1.1" id="图层_1" xmlns="http://www.w3.org/2000/svg" xmlns:xlink="http://www.w3.org/1999/xlink" x="0px" y="0px"
	 width="600px" height="600px" viewBox="0 0 600 600" enable-background="new 0 0 600 600" xml:space="preserve">
<circle fill="#22AC38" cx="309.5" cy="303" r="234.5"/>
<path fill-rule="evenodd" clip-rule="evenodd" fill="#FFFFFF" d="M266.048,191.088c50.663,0,92.957,30.761,102.883,71.688
	c-1.659-0.072-3.339-0.104-5.021-0.104c-55.207,0-99.959,38.572-99.959,86.153c0,7.81,1.204,15.359,3.465,22.554
	c-0.456,0-0.922,0.011-1.369,0.011c-13.611,0-26.619-2.21-38.559-6.256l-37.043,18.925l10.373-32.126
	c-24.295-16.517-39.875-42.044-39.875-70.698C160.943,231.442,207.999,191.088,266.048,191.088L266.048,191.088z M360.747,271.463
	c48.777,0,88.31,33.899,88.31,75.746c0,24.128-13.153,45.62-33.65,59.509l8.132,26.194L393.735,417.5l0.031-0.021
	c-10.208,3.535-21.349,5.475-33.02,5.475c-48.775,0-88.319-33.909-88.319-75.744C272.428,305.362,311.972,271.463,360.747,271.463
	L360.747,271.463z M392.864,310.91c6.494,0,11.773,5.287,11.773,11.813c0,6.549-5.279,11.847-11.773,11.847
	s-11.774-5.298-11.774-11.847C381.09,316.197,386.37,310.91,392.864,310.91L392.864,310.91z M334.513,310.91
	c6.493,0,11.774,5.287,11.774,11.813c0,6.549-5.281,11.847-11.774,11.847c-6.504,0-11.763-5.298-11.763-11.847
	C322.75,316.197,328.009,310.91,334.513,310.91L334.513,310.91z M229.523,234.299c8.081,0,14.637,6.58,14.637,14.704
	c0,8.112-6.556,14.702-14.637,14.702c-8.081,0-14.627-6.59-14.627-14.702C214.896,240.879,221.442,234.299,229.523,234.299
	L229.523,234.299z M302.055,234.299c8.08,0,14.626,6.58,14.626,14.704c0,8.112-6.546,14.702-14.626,14.702
	c-8.082,0-14.637-6.59-14.637-14.702C287.418,240.879,293.973,234.299,302.055,234.299L302.055,234.299z"/>
</svg>
